<?xml version="1.0" encoding="UTF-8"?>
<!DOCTYPE svg PUBLIC "-//W3C//DTD SVG 1.1//EN" "http://www.w3.org/Graphics/SVG/1.1/DTD/svg11.dtd">
<!-- Creator: CorelDRAW 2020 (64-Bit) -->
<svg xmlns="http://www.w3.org/2000/svg" xml:space="preserve" width="200mm" height="200mm" version="1.1" style="shape-rendering:geometricPrecision; text-rendering:geometricPrecision; image-rendering:optimizeQuality; fill-rule:evenodd; clip-rule:evenodd"
viewBox="0 0 20000 20000"
 xmlns:xlink="http://www.w3.org/1999/xlink"
 xmlns:xodm="http://www.corel.com/coreldraw/odm/2003">
 <defs>
  <style type="text/css">
   <![CDATA[
    .str0 {stroke:black;stroke-width:20;stroke-miterlimit:22.9256}
    .fil1 {fill:none}
    .fil0 {fill:black}
   ]]>
  </style>
 </defs>
 <g id="Capa_x0020_1">
  <metadata id="CorelCorpID_0Corel-Layer"/>
  <g>
   <path class="fil0" d="M9992.39 1125.76c4905.32,0 8881.84,3976.52 8881.84,8881.84 0,4905.32 -3976.52,8881.84 -8881.84,8881.84 -4905.32,0 -8881.84,-3976.52 -8881.84,-8881.84 0,-4905.32 3976.52,-8881.84 8881.84,-8881.84zm0 -868.16c5384.78,0 9750,4365.22 9750,9750 0,5384.78 -4365.22,9750 -9750,9750 -5384.78,0 -9750,-4365.22 -9750,-9750 0,-5384.78 4365.22,-9750 9750,-9750zm2187.64 7548.41l-5375.82 0 0 2414.74c0,45.78 37.45,83.23 83.23,83.23l4404.14 0c-59.03,-197.5 -117.61,-395.19 -175.32,-593.01 -45.46,-155.83 -122.63,-362.07 8.17,-498.3 126.8,-132.04 321.78,-71.62 474.23,-31.87 193.21,50.39 387.46,103.86 581.37,159.39l0 -1534.18zm-759.91 2925.85c29.25,97.02 58.56,194.03 87.83,291.05 48.5,160.71 94.4,425.35 295.53,452.74 82.28,11.2 145.23,-19.78 207.47,-67.67 79.29,-60.99 155.67,-126.49 234.45,-188.29 123.08,113.73 242.34,232.39 368.06,343.01 179.11,157.62 318.78,172.92 504.93,12.62 131.97,-113.68 273.38,-258.52 387.53,-390.28 158.94,-183.43 165.22,-323.42 12.24,-514.61 -113.74,-142.13 -249.66,-280.63 -376.42,-412.64 49.24,-62.75 103.98,-124.05 151.43,-186.49 44.71,-58.84 74.34,-121.09 67.17,-197.79 -19.43,-207.97 -285.36,-263.66 -448.76,-314.42 -106.92,-33.23 -214.54,-66.16 -322.5,-98.66l0 -2699.07c0,-208.19 -170.37,-378.59 -378.6,-378.59l-5436.72 0c-208.23,0 -378.6,170.4 -378.6,378.59l0 3591.9c0,208.2 170.37,378.6 378.6,378.6l4646.36 0zm1415.58 460.85c96.2,76.45 105.19,43.73 196.84,-44.39 39.03,-37.48 169.52,-158.67 150.24,-216.69 -65.5,-161.31 -465.68,-372.76 -501.04,-657.4 -13.22,-106.55 78.24,-225.96 133.45,-309.92 -102.12,-61.14 -608.34,-196.99 -768.74,-243.47 -98.06,-28.42 -460.35,-139.23 -543.86,-144.05 35.05,237.35 150.24,558.33 224.32,796.66 49.82,160.31 105.95,354.37 167.81,508.21 28.71,71.33 47.55,45.59 101.78,-4.04 164.82,-151.03 302.35,-138.66 485.62,-6.81 128.16,92.15 231.86,218.76 353.58,321.9zm-2140.72 3005.38l0.44 9.85c3.37,73.73 7.95,145.95 16.53,219.33 13.6,116.11 35.3,229.97 68.68,342.1 43.2,145.13 105.03,287.1 183.84,416.42 49.35,81.03 106.52,159.02 169.93,231.14 -405.73,0.19 -811.43,-0.06 -1217.13,-0.06 -405.7,0 -811.4,0.25 -1217.13,0.06 63.41,-72.12 120.58,-150.11 169.92,-231.14 78.82,-129.32 140.65,-271.29 183.85,-416.42 33.38,-112.13 55.08,-225.99 68.68,-342.1 8.58,-73.38 13.16,-145.6 16.53,-219.33l0.44 -9.85 6098.42 0c503.22,0 914.94,-411.72 914.94,-914.98l0 -7652.94c0,-503.25 -411.72,-914.98 -914.94,-914.98l-10641.45 0c-503.22,0 -914.95,411.73 -914.95,914.98l0 7652.94c0,503.26 411.73,914.98 914.95,914.98l4112.63 0c-2.84,60.17 -6.59,119.2 -13.63,179.21 -10.7,91.4 -27.45,181.09 -53.73,269.4 -32.62,109.64 -79.38,217.66 -138.91,315.41 -61.97,101.65 -141.38,198.22 -231.36,276.25 -76.6,64.04 -145.6,109.98 -230.76,161.5 -59.72,36.13 -592.44,13.95 -683.11,16.22 -858.89,21.67 -947.57,1048.78 -341.85,1232.81 365.57,111.09 2381.61,74.62 2901.46,74.43 519.85,0.19 2535.89,36.66 2901.46,-74.43 605.72,-184.03 517.04,-1211.14 -341.85,-1232.81 -90.67,-2.27 -623.39,19.91 -683.12,-16.22 -85.15,-51.52 -154.15,-97.46 -230.75,-161.5 -89.98,-78.03 -169.39,-174.6 -231.36,-276.25 -59.53,-97.75 -106.29,-205.77 -138.91,-315.41 -26.28,-88.31 -43.04,-178 -53.73,-269.4 -7.04,-60.01 -10.79,-119.04 -13.63,-179.21l-430.4 0zm4598.18 -8248.82l0 6184.89 421.53 0 0 -6545.35c0,-229.18 -187.43,-416.61 -416.58,-416.61l-10761.71 0c-229.15,0 -416.59,187.43 -416.59,416.61l0 6545.35 448.8 0 0 -6190.22c0,-242.34 196.46,-438.8 438.8,-438.8l9846.98 0c242.34,0 438.8,196.46 438.8,438.8 0,1.76 -0.03,3.53 -0.03,5.33zm421.53 6623.12l-11594.88 0 0 752.09c0,229.17 187.44,416.61 416.59,416.61l10761.71 0c229.15,0 416.58,-187.44 416.58,-416.61l0 -752.09zm-859.76 -6629.02l-9848.09 0 0 6190.79 9848.09 0 0 -6190.79zm-4937.66 10349.99c-335.57,0.12 -671.13,1.6 -1006.7,1.45 -389.23,-0.19 -1394.38,16.56 -1735.94,-47.58 -211.85,-39.79 -112.41,-327.33 46.54,-383.08 111.69,-39.19 2517.4,-17.32 2696.1,-17.32 178.7,0 2584.41,-21.87 2696.1,17.32 158.95,55.75 258.39,343.29 46.53,383.08 -341.55,64.14 -1346.7,47.39 -1735.94,47.58 -335.56,0.15 -671.13,-1.33 -1006.69,-1.45zm-615.57 -3341.08l1231.14 0c117.08,0 212.93,95.79 212.93,212.87 0,117.08 -95.85,212.87 -212.93,212.87l-1231.14 0c-117.08,0 -212.93,-95.79 -212.93,-212.87 0,-117.08 95.85,-212.87 212.93,-212.87zm-2497.49 -5555.31l5375.82 0 0 -503.1c0,-45.77 -37.45,-83.22 -83.23,-83.22l-5209.36 0c-45.78,0 -83.23,37.45 -83.23,83.22l0 503.1z"/>
   <path id="1" class="fil1 str0" d="M9992.39 1125.76c4905.32,0 8881.84,3976.52 8881.84,8881.84 0,4905.32 -3976.52,8881.84 -8881.84,8881.84 -4905.32,0 -8881.84,-3976.52 -8881.84,-8881.84 0,-4905.32 3976.52,-8881.84 8881.84,-8881.84zm0 -868.16c5384.78,0 9750,4365.22 9750,9750 0,5384.78 -4365.22,9750 -9750,9750 -5384.78,0 -9750,-4365.22 -9750,-9750 0,-5384.78 4365.22,-9750 9750,-9750zm2187.64 7548.41l-5375.82 0 0 2414.74c0,45.78 37.45,83.23 83.23,83.23l4404.14 0c-59.03,-197.5 -117.61,-395.19 -175.32,-593.01 -45.46,-155.83 -122.63,-362.07 8.17,-498.3 126.8,-132.04 321.78,-71.62 474.23,-31.87 193.21,50.39 387.46,103.86 581.37,159.39l0 -1534.18zm-759.91 2925.85c29.25,97.02 58.56,194.03 87.83,291.05 48.5,160.71 94.4,425.35 295.53,452.74 82.28,11.2 145.23,-19.78 207.47,-67.67 79.29,-60.99 155.67,-126.49 234.45,-188.29 123.08,113.73 242.34,232.39 368.06,343.01 179.11,157.62 318.78,172.92 504.93,12.62 131.97,-113.68 273.38,-258.52 387.53,-390.28 158.94,-183.43 165.22,-323.42 12.24,-514.61 -113.74,-142.13 -249.66,-280.63 -376.42,-412.64 49.24,-62.75 103.98,-124.05 151.43,-186.49 44.71,-58.84 74.34,-121.09 67.17,-197.79 -19.43,-207.97 -285.36,-263.66 -448.76,-314.42 -106.92,-33.23 -214.54,-66.16 -322.5,-98.66l0 -2699.07c0,-208.19 -170.37,-378.59 -378.6,-378.59l-5436.72 0c-208.23,0 -378.6,170.4 -378.6,378.59l0 3591.9c0,208.2 170.37,378.6 378.6,378.6l4646.36 0zm1415.58 460.85c96.2,76.45 105.19,43.73 196.84,-44.39 39.03,-37.48 169.52,-158.67 150.24,-216.69 -65.5,-161.31 -465.68,-372.76 -501.04,-657.4 -13.22,-106.55 78.24,-225.96 133.45,-309.92 -102.12,-61.14 -608.34,-196.99 -768.74,-243.47 -98.06,-28.42 -460.35,-139.23 -543.86,-144.05 35.05,237.35 150.24,558.33 224.32,796.66 49.82,160.31 105.95,354.37 167.81,508.21 28.71,71.33 47.55,45.59 101.78,-4.04 164.82,-151.03 302.35,-138.66 485.62,-6.81 128.16,92.15 231.86,218.76 353.58,321.9zm-2140.72 3005.38l0.44 9.85c3.37,73.73 7.95,145.95 16.53,219.33 13.6,116.11 35.3,229.97 68.68,342.1 43.2,145.13 105.03,287.1 183.84,416.42 49.35,81.03 106.52,159.02 169.93,231.14 -405.73,0.19 -811.43,-0.06 -1217.13,-0.06 -405.7,0 -811.4,0.25 -1217.13,0.06 63.41,-72.12 120.58,-150.11 169.92,-231.14 78.82,-129.32 140.65,-271.29 183.85,-416.42 33.38,-112.13 55.08,-225.99 68.68,-342.1 8.58,-73.38 13.16,-145.6 16.53,-219.33l0.44 -9.85 6098.42 0c503.22,0 914.94,-411.72 914.94,-914.98l0 -7652.94c0,-503.25 -411.72,-914.98 -914.94,-914.98l-10641.45 0c-503.22,0 -914.95,411.73 -914.95,914.98l0 7652.94c0,503.26 411.73,914.98 914.95,914.98l4112.63 0c-2.84,60.17 -6.59,119.2 -13.63,179.21 -10.7,91.4 -27.45,181.09 -53.73,269.4 -32.62,109.64 -79.38,217.66 -138.91,315.41 -61.97,101.65 -141.38,198.22 -231.36,276.25 -76.6,64.04 -145.6,109.98 -230.76,161.5 -59.72,36.13 -592.44,13.95 -683.11,16.22 -858.89,21.67 -947.57,1048.78 -341.85,1232.81 365.57,111.09 2381.61,74.62 2901.46,74.43 519.85,0.19 2535.89,36.66 2901.46,-74.43 605.72,-184.03 517.04,-1211.14 -341.85,-1232.81 -90.67,-2.27 -623.39,19.91 -683.12,-16.22 -85.15,-51.52 -154.15,-97.46 -230.75,-161.5 -89.98,-78.03 -169.39,-174.6 -231.36,-276.25 -59.53,-97.75 -106.29,-205.77 -138.91,-315.41 -26.28,-88.31 -43.04,-178 -53.73,-269.4 -7.04,-60.01 -10.79,-119.04 -13.63,-179.21m4167.78 -8248.82l0 6184.89 421.53 0 0 -6545.35c0,-229.18 -187.43,-416.61 -416.58,-416.61l-10761.71 0c-229.15,0 -416.59,187.43 -416.59,416.61l0 6545.35 448.8 0 0 -6190.22c0,-242.34 196.46,-438.8 438.8,-438.8l9846.98 0c242.34,0 438.8,196.46 438.8,438.8 0,1.76 -0.03,3.53 -0.03,5.33zm421.53 6623.12l-11594.88 0 0 752.09c0,229.17 187.44,416.61 416.59,416.61l10761.71 0c229.15,0 416.58,-187.44 416.58,-416.61l0 -752.09zm-859.76 -6629.02l-9848.09 0 0 6190.79 9848.09 0 0 -6190.79zm-4937.66 10349.99c-335.57,0.12 -671.13,1.6 -1006.7,1.45 -389.23,-0.19 -1394.38,16.56 -1735.94,-47.58 -211.85,-39.79 -112.41,-327.33 46.54,-383.08 111.69,-39.19 2517.4,-17.32 2696.1,-17.32 178.7,0 2584.41,-21.87 2696.1,17.32 158.95,55.75 258.39,343.29 46.53,383.08 -341.55,64.14 -1346.7,47.39 -1735.94,47.58 -335.56,0.15 -671.13,-1.33 -1006.69,-1.45zm-615.57 -3341.08l1231.14 0c117.08,0 212.93,95.79 212.93,212.87 0,117.08 -95.85,212.87 -212.93,212.87l-1231.14 0c-117.08,0 -212.93,-95.79 -212.93,-212.87 0,-117.08 95.85,-212.87 212.93,-212.87zm-2497.49 -5555.31l5375.82 0 0 -503.1c0,-45.77 -37.45,-83.22 -83.23,-83.22l-5209.36 0c-45.78,0 -83.23,37.45 -83.23,83.22l0 503.1z"/>
  </g>
 </g>
</svg>
