<?xml version="1.0" encoding="UTF-8"?>
<!DOCTYPE svg PUBLIC "-//W3C//DTD SVG 1.1//EN" "http://www.w3.org/Graphics/SVG/1.1/DTD/svg11.dtd">
<!-- Creator: CorelDRAW 2020 (64-Bit) -->
<svg xmlns="http://www.w3.org/2000/svg" xml:space="preserve" width="200mm" height="200mm" version="1.1" style="shape-rendering:geometricPrecision; text-rendering:geometricPrecision; image-rendering:optimizeQuality; fill-rule:evenodd; clip-rule:evenodd"
viewBox="0 0 20000 20000"
 xmlns:xlink="http://www.w3.org/1999/xlink"
 xmlns:xodm="http://www.corel.com/coreldraw/odm/2003">
 <defs>
  <style type="text/css">
   <![CDATA[
    .str0 {stroke:black;stroke-width:20;stroke-miterlimit:22.9256}
    .fil0 {fill:black}
   ]]>
  </style>
 </defs>
 <g id="Capa_x0020_1">
  <metadata id="CorelCorpID_0Corel-Layer"/>
  <path class="fil0 str0" d="M9992.39 257.6c5384.78,0 9750,4365.22 9750,9750 0,5384.78 -4365.22,9750 -9750,9750 -5384.78,0 -9750,-4365.22 -9750,-9750 0,-5384.78 4365.22,-9750 9750,-9750zm0 868.16c4905.32,0 8881.84,3976.52 8881.84,8881.84 0,4905.32 -3976.52,8881.84 -8881.84,8881.84 -4905.32,0 -8881.84,-3976.52 -8881.84,-8881.84 0,-4905.32 3976.52,-8881.84 8881.84,-8881.84zm1129.65 10833.23l-3916.9 0 0 -1270.23c0,-503.12 -411.72,-914.88 -914.94,-914.88l-1261.4 0 0 -3866.26c0,-243.97 199.3,-443.11 442.9,-443.11l9047.85 0c243.6,0 442.9,199.14 442.9,443.11l0 1700.04 -2947.43 0c-491.16,0 -892.98,401.88 -892.98,892.96l0 3458.37zm-2615.24 3002.55l3951.5 -24.67 3292.74 0c491.17,0 892.99,-401.89 892.99,-892.96l0 -5543.29c0,-491.08 -401.82,-892.96 -892.99,-892.96l-387.87 0 0 -1704.86c0,-479.97 -392.52,-872.39 -872.23,-872.39l-8990.63 0c-479.78,0 -872.23,392.42 -872.23,872.39l0 3871.08 -397.97 0c-503.22,0 -914.95,411.76 -914.95,914.88l0 3345.75c0,503.12 411.73,914.88 914.95,914.88l2060.09 0c503.22,0 914.94,-411.76 914.94,-914.88l0 -556.29 1853.59 0c-6.97,35.49 -13.91,70.99 -22.27,132.22 -8.36,61.21 -18.08,148.13 -27.83,235.08l-501.93 0c-228.76,0 -414.25,185.48 -414.25,414.25l0 19.85 0 250.41 0 17.26c0,228.77 185.49,414.25 414.35,414.25zm2615.24 -1917.42l-3916.9 0 0 -651.03 3916.9 0 0 651.03zm-6878.49 1471.21l2033.21 0c267.29,0 485.96,-218.74 485.96,-485.97l0 -3335.45c0,-267.36 -218.67,-485.97 -485.96,-485.97l-2033.21 0c-267.29,0 -485.96,218.61 -485.96,485.97l0 3335.45c0,267.23 218.67,485.97 485.96,485.97zm4283 14.7l0 -250.41 2627.26 0c24.76,89.82 63.29,174.15 113.13,250.41l-2740.39 0zm3465.92 -5.43l3781.13 0c291.87,0 530.67,-238.83 530.67,-530.67l0 -5443.34c0,-291.83 -238.8,-530.67 -530.67,-530.67l-3781.13 0c-291.87,0 -530.67,238.84 -530.67,530.67l0 5443.34c0,291.84 238.8,530.67 530.67,530.67zm74.86 -912.86l3612.63 0c167.78,0 305.02,-137.28 305.02,-305.06l0 -4719.8c0,-167.79 -137.24,-305.06 -305.02,-305.06l-3612.63 0c-167.78,0 -305.02,137.27 -305.02,305.06l0 4719.8c0,167.78 137.24,305.06 305.02,305.06zm200.72 -435.8l3211.19 0c88.27,0 160.49,-72.19 160.49,-160.43l0 -4137.46c0,-88.21 -72.22,-160.43 -160.49,-160.43l-3211.19 0c-88.27,0 -160.49,72.22 -160.49,160.43l0 4137.46c0,88.24 72.22,160.43 160.49,160.43zm1605.61 669.49c129.1,0 233.76,104.65 233.76,233.75 0,129.1 -104.66,233.75 -233.76,233.75 -129.1,0 -233.75,-104.65 -233.75,-233.75 0,-129.1 104.65,-233.75 233.75,-233.75zm-4447.65 0.09c8.36,-73.04 16.69,-146.04 25.05,-207.25 8.36,-61.24 16.69,-110.64 25.05,-160.05l1072.66 0c12.53,46.63 25.05,93.26 34.8,154.5 9.72,61.21 16.69,136.99 23.63,212.8l-1181.19 0z"/>
 </g>
</svg>
