<?xml version="1.0" encoding="UTF-8"?>
<!DOCTYPE svg PUBLIC "-//W3C//DTD SVG 1.1//EN" "http://www.w3.org/Graphics/SVG/1.1/DTD/svg11.dtd">
<!-- Creator: CorelDRAW 2020 (64-Bit) -->
<svg xmlns="http://www.w3.org/2000/svg" xml:space="preserve" width="46.5666mm" height="46.5666mm" version="1.1" style="shape-rendering:geometricPrecision; text-rendering:geometricPrecision; image-rendering:optimizeQuality; fill-rule:evenodd; clip-rule:evenodd"
viewBox="0 0 4656.66 4656.66"
 xmlns:xlink="http://www.w3.org/1999/xlink"
 xmlns:xodm="http://www.corel.com/coreldraw/odm/2003">
 <defs>
  <style type="text/css">
   <![CDATA[
    .str0 {stroke:black;stroke-width:20;stroke-miterlimit:22.9256}
    .fil0 {fill:black}
   ]]>
  </style>
 </defs>
 <g id="Capa_x0020_1">
  <metadata id="CorelCorpID_0Corel-Layer"/>
  <g id="_2443667514640">
   <path class="fil0 str0" d="M2285.63 1516.95c455.43,-34.6 813.53,311.88 845.21,724.4 35.27,459.44 -308.7,813.49 -723.61,848.51 -454.85,38.4 -814.98,-310.57 -848.65,-722.53 -37.56,-459.59 311.16,-818.78 727.05,-850.38zm-25.13 -291.36c-426.32,38.25 -780.08,302.79 -928.76,696 -53.41,141.21 -78.4,304.02 -64.98,470.49 45.49,564.59 542.49,1044.04 1165.58,989.87 569.6,-49.51 1037.9,-538.59 989.71,-1164.9 -43.27,-562.44 -542.23,-1047.03 -1161.55,-991.46z"/>
   <path class="fil0 str0" d="M3665.5 3503.81c-8.62,-34.15 13.32,-156.31 13.25,-204.19 -0.12,-89 -104.1,-87.32 -117.51,-18.66 -11.01,56.38 -12.03,152.43 -17.46,214.58 -22.68,259.85 -37.46,240.51 208.59,219.94 67.85,-5.67 146.58,-7.97 213.14,-16.86 85.99,-11.47 74.33,-112.03 6.51,-118.94 -47.68,-4.86 -165.35,12.37 -221.59,15.58 16.28,-29.75 26.48,-37.24 48.91,-62.94 118.8,-136.13 226.03,-318.55 298.56,-485.5 97.03,-223.35 151.11,-481.09 151.11,-756.56 0,-357.41 -99.35,-649.53 -242.48,-917.7 -20.11,-37.69 -89.99,-155.45 -114.67,-170.97 -40.99,-25.77 -85.41,1.29 -89.99,40.78 -4.21,36.23 29.24,70.32 45.63,96.59 464.11,744.12 319.59,1616.22 -182,2164.85z"/>
   <path class="fil0 str0" d="M1053.71 3708.85c51,33.01 136.95,114.75 252.8,191.15 488.62,322.2 1115.08,397.09 1672.32,200.19 103.15,-36.45 470.78,-197.61 477.12,-275.54 5.02,-61.73 -53.99,-79.88 -102.94,-48.05 -315.92,205.45 -619.59,311.42 -1021.48,312.04 -248.16,0.33 -482.67,-56.94 -686.35,-142.15 -131.09,-54.85 -433.36,-231.02 -500.21,-325.07 63.92,3.55 140.93,15.72 203.56,15.82 88.67,0.14 86.72,-102.49 18.81,-117.01 -53.17,-11.37 -155.22,-12.96 -213.12,-17.78 -51.07,-4.24 -180.08,-25.66 -213.08,1.48 -35.94,29.56 -11.89,151.78 -7.46,205.53 5.6,67.95 7.76,148.02 17,214.69 11.46,82.79 111.29,77.7 118.35,6.82 4.96,-49.86 -12.37,-164.25 -15.32,-222.12z"/>
   <path class="fil0 str0" d="M939.34 1011.86c-24.39,38.51 -60.45,75.91 -91.61,113.39 -30.69,36.91 -55.11,75.73 -83.62,115.81 -49.2,69.17 -108.59,172.65 -146.7,258.61 -190.8,430.43 -239.38,894.14 -97.88,1353.67 43.23,140.4 174.91,452.03 266.92,543.51 43.94,43.69 116.59,2.59 98.72,-58.63 -5.04,-17.27 -61.37,-97.06 -76.67,-122.91 -51.53,-87.06 -93.67,-172.1 -132.41,-272.74 -252.26,-655.3 -81.73,-1373.18 347.87,-1839.73 10.35,34.8 -12.56,155.08 -12.63,204.24 -0.12,89.36 103.06,85.22 117.12,19.14 11.19,-52.62 13.08,-156.73 18.04,-215.82 21.87,-260.73 36.6,-238.18 -207.88,-218.68 -67.97,5.42 -147.09,7.92 -214.47,16.89 -86.37,11.48 -74.11,112.1 -6.57,118.76 50.64,4.99 163.01,-12.54 221.77,-15.51z"/>
   <path class="fil0 str0" d="M3541.27 983.75c-59.3,-0.96 -162.1,-19.45 -212.25,-14.28 -69.54,7.16 -80.34,107.91 5.73,118.63 66.08,8.23 141.26,11.09 207.84,16.8 253.99,21.78 233.55,36.31 213.92,-206.04 -5.62,-69.34 -8.09,-148.82 -17.38,-215.88 -11.72,-84.69 -112.65,-76.79 -118.52,-6.82 -4.58,54.64 13.29,159.23 15.53,221.57 -24.43,-14.51 -150.23,-121.89 -229.1,-174.72 -82.59,-55.32 -160.11,-98.97 -258.94,-146.23 -420.53,-201.11 -898.19,-227.15 -1346.99,-99.13 -97.64,27.85 -204.44,69.22 -292.13,113.24 -72.18,36.24 -203.93,105.97 -253.93,151.21 -44.96,40.68 -14.63,116.26 49.97,102.99 14.3,-2.93 104.37,-63.09 124.03,-75.17 83.23,-51.15 174.71,-95.71 272.13,-132.95 582.12,-222.56 1242.03,-128.67 1728.86,249.14 24.43,18.96 93.97,71.37 111.23,97.64z"/>
   <path class="fil0 str0" d="M2284.56 1904.95c-37.56,26.92 -96.02,21.58 -149.18,102.73 -36.48,55.68 -51.4,128.47 -24.6,204.33 21.53,60.98 68.5,107.37 121.72,130.87 76.79,33.92 156.07,1.33 207.99,50.97 52.48,50.18 36.18,139.61 -19.2,172.25 -58.35,34.39 -158.29,19.12 -195.43,-23.93 -60.93,-70.61 -136.93,-0.46 -102.21,62 24.91,44.8 92.64,84.6 161.67,95.82 0.28,55.82 -1.3,107.87 54.19,112.74 80.6,7.07 65.14,-103.71 65.19,-103.94 6.39,-27.05 46,-9.47 106.07,-60.11 29.16,-24.59 56.4,-62.29 69.91,-102.68 45.49,-136.1 -45.02,-280.79 -185.67,-299.27 -61.06,-8.03 -100.55,9.89 -143.24,-29.74 -76.41,-70.95 -30.21,-191.53 79.76,-191.53 107.3,0 88.86,3.93 144.95,53.64 53.71,47.6 166.18,-22.04 43.79,-123.73 -42.22,-35.07 -62.97,-28.14 -113.75,-50.42 -6.24,-56.84 1.96,-107.37 -61.65,-107.17 -62.88,0.19 -56.98,49.53 -60.31,107.17z"/>
  </g>
 </g>
</svg>
