<?xml version="1.0" encoding="UTF-8"?>
<!DOCTYPE svg PUBLIC "-//W3C//DTD SVG 1.1//EN" "http://www.w3.org/Graphics/SVG/1.1/DTD/svg11.dtd">
<!-- Creator: CorelDRAW 2020 (64-Bit) -->
<svg xmlns="http://www.w3.org/2000/svg" xml:space="preserve" width="200mm" height="200mm" version="1.1" style="shape-rendering:geometricPrecision; text-rendering:geometricPrecision; image-rendering:optimizeQuality; fill-rule:evenodd; clip-rule:evenodd"
viewBox="0 0 20000 20000"
 xmlns:xlink="http://www.w3.org/1999/xlink"
 xmlns:xodm="http://www.corel.com/coreldraw/odm/2003">
 <defs>
  <style type="text/css">
   <![CDATA[
    .str0 {stroke:black;stroke-width:20;stroke-miterlimit:22.9256}
    .fil0 {fill:black}
   ]]>
  </style>
 </defs>
 <g id="Capa_x0020_1">
  <metadata id="CorelCorpID_0Corel-Layer"/>
  <path class="fil0 str0" d="M9992.39 257.6c5384.78,0 9750,4365.22 9750,9750 0,5384.78 -4365.22,9750 -9750,9750 -5384.78,0 -9750,-4365.22 -9750,-9750 0,-5384.78 4365.22,-9750 9750,-9750zm0 868.16c4905.32,0 8881.84,3976.52 8881.84,8881.84 0,4905.32 -3976.52,8881.84 -8881.84,8881.84 -4905.32,0 -8881.84,-3976.52 -8881.84,-8881.84 0,-4905.32 3976.52,-8881.84 8881.84,-8881.84zm0 2644.39c3444.87,0 6237.45,2792.58 6237.45,6237.45 0,3444.87 -2792.58,6237.45 -6237.45,6237.45 -3444.87,0 -6237.45,-2792.58 -6237.45,-6237.45 0,-3444.87 2792.58,-6237.45 6237.45,-6237.45zm3021.13 3120.06c463.94,-78.65 929.24,-175.16 1395.86,-289.53 -645.8,-836.1 -1523.8,-1483.73 -2537.28,-1846.4 469.28,537.9 861.76,1271.31 1141.42,2135.93zm154.65 536.67c525.22,-92 1050.65,-206.37 1575.54,-342.89 474.01,768.69 766.73,1661.14 818.41,2617.64l-2086.33 0c-21.84,-808.15 -129.71,-1575.98 -307.62,-2274.75zm11.55 5115.54c527.17,94.14 1056.07,211.32 1586.74,351.56 459.62,-758.68 743.6,-1635.74 795.31,-2574.64l-2086.14 0c-21.68,788.41 -125.32,1538.32 -295.91,2223.08zm-156.36 551.87c467.63,79.5 936.56,177.18 1406.91,293 -647.72,849.2 -1533.71,1507.02 -2558.17,1873.63 474.8,-544.24 871,-1288.66 1151.26,-2166.63zm-6063.52 -4.92c280.32,880.08 677.16,1626.27 1152.84,2171.55 -1024.21,-366.52 -1909.97,-1024.12 -2557.66,-1873 467.38,-118.47 935.67,-217.98 1404.82,-298.55zm-155.95 -551.65c-169.9,-683.47 -273.13,-1431.77 -294.74,-2218.38l-2086.17 0c51.77,940.16 336.44,1818.29 797.17,2577.63 526.82,-143.83 1054.65,-263.63 1583.74,-359.25zm9.72 -5098.98c-176.11,695.58 -282.91,1459.31 -304.62,2262.89l-2086.3 0c51.62,-954.86 343.45,-1845.89 816.01,-2613.72 521.8,140.9 1046.98,257.85 1574.91,350.83zm156.08 -543.6c279.75,-866.77 672.83,-1601.95 1142.99,-2140.86 -1013.29,362.61 -1891.04,1010.08 -2536.84,1845.86 463.75,116.99 928.36,215.33 1393.85,295zm2689.28 252.46l0 -2678.43c-845.13,201.73 -1574.15,1160.81 -2012.85,2528.54 668.82,88.34 1339.7,138.34 2012.85,149.89zm2677.99 -155.26c-447.38,-1391.29 -1195.4,-2358.61 -2060.27,-2534.02l0 2689.09c684.19,-12.08 1370.84,-63.79 2060.27,-155.07zm153.33 540.99c163.3,659.42 263.38,1392.83 284.3,2168.3l-2497.9 0 0 -1993.74c735.93,-13.72 1474.36,-72.06 2213.6,-174.59zm-2213.6 2786.04l0 1936.92c738.8,13.06 1480.44,72.28 2225.34,177.69 155.95,-645.29 251.64,-1360.03 272.4,-2114.61l-2497.74 0zm0 2516.05c687.47,12.15 1377.43,64.3 2070.18,156.39 -446.21,1407.98 -1198.9,2388.36 -2070.18,2565.11l0 -2721.5zm-617.72 -0.19l0 2710.83c-851.53,-203.24 -1585.19,-1175.36 -2022.76,-2559.61 672.14,-89.19 1346.33,-139.61 2022.76,-151.22zm0 -2515.86l-2448.62 0c20.7,752.47 115.91,1465.25 271.11,2109.18 723.41,-102.41 1449.15,-159.93 2177.51,-172.42l0 -1936.76zm0 -617.71l-2448.78 0c20.82,-770.92 119.89,-1500.29 281.46,-2156.75 718.48,98.43 1441.51,153.04 2167.32,164.09l0 1992.66z"/>
 </g>
</svg>
